<svg width="16" height="17" viewBox="0 0 16 17" fill="none" xmlns="http://www.w3.org/2000/svg">
<path d="M8 9.4451L10.5071 11.952C10.6379 12.0829 10.7928 12.151 10.9718 12.1561C11.1507 12.1614 11.3108 12.0934 11.452 11.952C11.5934 11.8108 11.6641 11.6533 11.6641 11.4796C11.6641 11.3059 11.5934 11.1484 11.452 11.0071L8.9451 8.5L11.452 5.99286C11.5829 5.86211 11.651 5.70721 11.6561 5.52816C11.6614 5.34925 11.5934 5.18918 11.452 5.04796C11.3108 4.9066 11.1533 4.83592 10.9796 4.83592C10.8059 4.83592 10.6484 4.9066 10.5071 5.04796L8 7.5549L5.49286 5.04796C5.36211 4.91707 5.20721 4.84905 5.02816 4.84388C4.84925 4.83857 4.68918 4.9066 4.54796 5.04796C4.4066 5.18918 4.33592 5.34667 4.33592 5.52041C4.33592 5.69415 4.4066 5.85163 4.54796 5.99286L7.0549 8.5L4.54796 11.0071C4.41707 11.1379 4.34905 11.2928 4.34388 11.4718C4.33857 11.6507 4.4066 11.8108 4.54796 11.952C4.68918 12.0934 4.84667 12.1641 5.02041 12.1641C5.19415 12.1641 5.35163 12.0934 5.49286 11.952L8 9.4451ZM8.00265 16.5C6.8915 16.5 5.85129 16.2902 4.88204 15.8706C3.91293 15.451 3.06694 14.8801 2.34408 14.158C1.62122 13.4358 1.04986 12.5905 0.63 11.622C0.21 10.6537 0 9.61395 0 8.50265C0 7.3915 0.209796 6.34789 0.629388 5.37184C1.04898 4.39592 1.61986 3.54653 2.34204 2.82367C3.06422 2.10082 3.90952 1.53286 4.87796 1.1198C5.84626 0.706599 6.88605 0.5 7.99735 0.5C9.1085 0.5 10.1521 0.706395 11.1282 1.11918C12.1041 1.53197 12.9535 2.09946 13.6763 2.82163C14.3992 3.54381 14.9671 4.39252 15.3802 5.36776C15.7934 6.34286 16 7.38605 16 8.49735C16 9.6085 15.7936 10.6487 15.3808 11.618C14.968 12.5871 14.4005 13.4331 13.6784 14.1559C12.9562 14.8788 12.1075 15.4501 11.1322 15.87C10.1571 16.29 9.11395 16.5 8.00265 16.5Z" fill="#444444"/>
</svg>
