<svg width="10" height="16" viewBox="0 0 10 16" fill="none" xmlns="http://www.w3.org/2000/svg">
<path d="M6.25776 8.00833L0.716617 2.46753C0.424419 2.17511 0.27832 1.8369 0.27832 1.45291C0.27832 1.06893 0.424419 0.730723 0.716617 0.438295C1.00904 0.146098 1.34725 0 1.73124 0C2.11522 0 2.45723 0.15002 2.75727 0.450058L9.31026 7.0027C9.44195 7.14384 9.54354 7.3009 9.61503 7.47386C9.68652 7.6466 9.72227 7.82706 9.72227 8.01525C9.72227 8.20343 9.68652 8.38389 9.61503 8.55663C9.54354 8.7296 9.44195 8.88204 9.31026 9.01395L2.75727 15.5666C2.45723 15.8666 2.12099 16.0109 1.74853 15.9994C1.37608 15.9878 1.04364 15.836 0.75121 15.5438C0.459013 15.2513 0.312914 14.9131 0.312914 14.5291C0.312914 14.1452 0.459013 13.807 0.75121 13.5145L6.25776 8.00833Z" fill="#AAAAAA"/>
</svg>
