<svg width="1301" height="318" viewBox="0 0 1301 318" fill="none" xmlns="http://www.w3.org/2000/svg">
<path d="M484.88 205.969H576.2V259.099H493.98C479.45 259.099 467.64 247.299 467.64 232.759V223.199C467.64 213.689 475.36 205.969 484.87 205.969H484.88Z" fill="black"/>
<path d="M457.82 151.69C464.86 128.24 489.57 114.94 513.01 121.98C520.32 124.17 526.64 128.09 531.67 133.14L562.74 99.6397C552.11 88.8997 538.71 80.5897 523.21 75.9397C473.75 61.0897 421.61 89.1597 406.76 138.62C391.91 188.08 419.98 240.22 469.44 255.07C480.9 258.51 492.51 259.64 503.77 258.74C493.89 258.78 485.68 250.98 485.31 241.02L484.15 210.08L486.64 206.59C463.74 199.2 450.86 174.83 457.81 151.68L457.82 151.69Z" fill="black"/>
<path d="M1017.8 205.969H1109.12V259.099H1026.9C1012.37 259.099 1000.56 247.299 1000.56 232.759V223.199C1000.56 213.689 1008.28 205.969 1017.79 205.969H1017.8Z" fill="black"/>
<path d="M990.74 151.69C997.78 128.24 1022.49 114.94 1045.93 121.98C1053.24 124.17 1059.56 128.09 1064.59 133.14L1095.66 99.6397C1085.03 88.8997 1071.63 80.5897 1056.13 75.9397C1006.67 61.0897 954.53 89.1597 939.68 138.62C924.83 188.08 952.9 240.22 1002.36 255.07C1013.82 258.51 1025.43 259.64 1036.69 258.74C1026.81 258.78 1018.6 250.98 1018.23 241.02L1017.07 210.08L1019.56 206.59C996.66 199.2 983.78 174.83 990.73 151.68L990.74 151.69Z" fill="black"/>
<path d="M86.9897 257.4C90.6397 258.39 94.3397 258.67 97.9297 258.34L86.9897 257.4Z" fill="black"/>
<path d="M84.9897 256.791C85.6497 257.021 86.3197 257.211 86.9897 257.391L84.9897 256.791Z" fill="black"/>
<path d="M97.9298 258.34L186.23 259.1L186.52 212L133.29 211.67L156.43 187.81C167.43 177.84 176.2 165.1 181.55 150.17C198.84 101.96 173.68 48.25 125.55 30.73C76.4498 12.86 22.3698 38.63 5.22979 87.82C1.28979 99.12 -0.350213 110.67 0.0597874 121.95C0.0997874 123.05 0.169787 124.14 0.259787 125.23L4.50979 205.18L52.9998 205.75L53.0298 200.47C52.9598 200.43 52.8998 200.4 52.8298 200.36L53.2098 121.01C53.3498 92.15 81.7098 71.23 108.97 80.69C109.58 80.9 110.18 81.12 110.78 81.36C131.85 89.69 143.32 113.05 137.03 134.81C134.65 143.03 130.15 149.99 124.32 155.3L77.0298 201.96C74.3298 203.88 71.9198 206.23 69.9298 208.97L69.8498 209.05C69.7598 209.03 69.7598 209.07 69.7798 209.12L69.6998 209.2C69.6998 209.2 69.7498 209.21 69.7698 209.2C68.0798 211.56 66.6898 214.19 65.6798 217.07C62.7098 225.6 63.6698 234.54 67.5898 241.93C70.3798 247.19 74.6798 251.66 80.1398 254.64C81.6198 255.45 83.1898 256.15 84.8298 256.73C84.8798 256.75 84.9398 256.76 84.9898 256.78" fill="black"/>
<path d="M662.68 154.511V150.391C662.65 151.771 662.65 153.141 662.68 154.511Z" fill="black"/>
<path d="M784.75 63.3804C735.57 47.6104 682.92 74.6904 667.15 123.86C665.45 129.17 664.25 134.51 663.52 139.85C663.04 143.37 662.76 146.89 662.69 150.39V317.18H715.51V139.18L690.31 139.85L711.93 139.47L714.4 139.43L714.51 139.18L715.51 141.18C723.68 119.04 748.03 106.89 770.72 114.16C794.03 121.64 806.86 146.59 799.39 169.9C797.06 177.17 793.03 183.42 787.88 188.35L741.77 236.17C739.12 238.15 736.77 240.57 734.85 243.35L734.77 243.43C734.67 243.41 734.68 243.46 734.7 243.5L734.62 243.59C734.62 243.59 734.67 243.59 734.69 243.59C733.06 245.99 731.73 248.66 730.8 251.56C728.04 260.16 729.22 269.07 733.33 276.37C736.25 281.56 740.66 285.92 746.2 288.76C747.7 289.53 749.28 290.2 750.95 290.73C751 290.75 751.06 290.76 751.11 290.78C751.78 290.99 752.45 291.17 753.12 291.33L790.43 252.6L798.26 244.47L820.8 220.04C831.74 209.61 840.3 196.37 845.24 180.97C861.01 131.79 833.93 79.1404 784.76 63.3704L784.75 63.3804Z" fill="black"/>
<path d="M1222.62 205.969H1290.73V259.099H1231.72C1217.19 259.099 1205.38 247.299 1205.38 232.759V223.199C1205.38 213.689 1213.1 205.969 1222.61 205.969H1222.62Z" fill="black"/>
<path d="M1195.56 151.69C1202.6 128.24 1227.31 114.94 1250.75 121.98C1258.06 124.17 1264.38 128.09 1269.41 133.14L1300.48 99.6397C1289.85 88.8997 1276.45 80.5897 1260.95 75.9397C1211.49 61.0897 1159.35 89.1597 1144.5 138.62C1129.65 188.08 1157.72 240.22 1207.18 255.07C1218.64 258.51 1230.25 259.64 1241.51 258.74C1231.63 258.78 1223.42 250.98 1223.05 241.02L1221.89 210.08L1224.38 206.59C1201.48 199.2 1188.6 174.83 1195.55 151.68L1195.56 151.69Z" fill="black"/>
<path d="M1124.14 -0.00012207V259.09H1180.51V-0.00012207H1124.14Z" fill="black"/>
<path d="M388.51 211.75H231.94V258.85H388.51V211.75Z" fill="black"/>
<path d="M364.5 154.9C376.51 154.9 386.41 163.89 387.86 175.51C392.82 132.74 367.57 90.82 325.17 76.34C276.3 59.65 223.15 85.74 206.46 134.61C202.59 145.94 201.03 157.5 201.5 168.78C201.51 168.39 201.54 168 201.58 167.61C201.57 167.31 201.55 167.01 201.54 166.7C201.56 165.89 201.63 165.09 201.72 164.29V163.47C201.72 163.24 201.72 163.02 201.74 162.8C201.75 163.09 201.78 163.38 201.79 163.68C201.84 163.28 201.9 162.89 201.97 162.5C203.88 151.29 211.88 142.83 221.44 142.79L251.1 142.65L254.78 142.63V144.78L254.74 152.38C263.42 130.58 287.75 119.19 310.2 126.85C323.86 131.51 333.75 142.19 337.96 154.9H350.09H364.51H364.5Z" fill="black"/>
<path d="M251.61 151.05L251.54 150.99H250.88L250.94 151.05H251.61Z" fill="black"/>
<path d="M273.32 213.811C273.32 213.811 273.31 213.811 273.3 213.811L273.23 213.881C273.23 213.881 273.24 213.911 273.24 213.931C273.27 213.891 273.29 213.851 273.32 213.821V213.811Z" fill="black"/>
<path d="M273.23 213.88L273.3 213.81C273.21 213.79 273.21 213.83 273.23 213.88Z" fill="black"/>
<path d="M273.38 213.73L273.3 213.81C273.3 213.81 273.3 213.81 273.32 213.81C273.34 213.78 273.36 213.76 273.38 213.73Z" fill="black"/>
<path d="M273.21 213.969C273.21 213.969 273.23 213.939 273.24 213.919C273.24 213.909 273.24 213.889 273.23 213.869L273.15 213.949C273.15 213.949 273.2 213.959 273.22 213.949L273.21 213.969Z" fill="black"/>
<path d="M364.71 146.891H317.77C304.763 146.891 294.22 157.434 294.22 170.441C294.22 183.447 304.763 193.991 317.77 193.991H364.71C377.716 193.991 388.26 183.447 388.26 170.441C388.26 157.434 377.716 146.891 364.71 146.891Z" fill="black"/>
<path d="M255.489 131.469L255.506 232.019C255.509 246.969 243.371 259.111 228.421 259.113C213.471 259.116 201.329 246.978 201.326 232.028L201.313 158.578C201.311 143.628 213.449 131.486 228.399 131.483L255.489 131.479L255.489 131.469Z" fill="black"/>
<path d="M591.28 77.6999V259.09H647.65V77.6999H591.28Z" fill="black"/>
<path d="M619.01 59.1797C633.645 59.1797 645.51 47.3152 645.51 32.6797C645.51 18.0441 633.645 6.17969 619.01 6.17969C604.374 6.17969 592.51 18.0441 592.51 32.6797C592.51 47.3152 604.374 59.1797 619.01 59.1797Z" fill="black"/>
<path d="M864.35 77.78V259.17H920.72V77.78H864.35Z" fill="black"/>
<path d="M894.01 59.1797C908.645 59.1797 920.51 47.3152 920.51 32.6797C920.51 18.0441 908.645 6.17969 894.01 6.17969C879.374 6.17969 867.51 18.0441 867.51 32.6797C867.51 47.3152 879.374 59.1797 894.01 59.1797Z" fill="black"/>
</svg>
