<svg width="21" height="34" viewBox="0 0 21 34" fill="none" xmlns="http://www.w3.org/2000/svg">
<path d="M7.49499 16.9993L19.1748 5.32029C19.7907 4.7039 20.0986 3.99102 20.0986 3.18164C20.0986 2.37227 19.7907 1.65938 19.1748 1.04299C18.5584 0.427091 17.8455 0.119141 17.0361 0.119141C16.2268 0.119141 15.5059 0.435357 14.8734 1.06779L1.06082 14.8797C0.783251 15.1772 0.569117 15.5082 0.418423 15.8728C0.267729 16.2369 0.192383 16.6173 0.192383 17.0139C0.192383 17.4106 0.267729 17.791 0.418423 18.1551C0.569117 18.5197 0.783251 18.841 1.06082 19.119L14.8734 32.9309C15.5059 33.5633 16.2146 33.8674 16.9997 33.8431C17.7847 33.8188 18.4855 33.4987 19.1019 32.8828C19.7178 32.2664 20.0257 31.5535 20.0257 30.7441C20.0257 29.9348 19.7178 29.2219 19.1019 28.6055L7.49499 16.9993Z" fill="white"/>
</svg>
