<svg width="44" height="53" viewBox="0 0 44 53" fill="none" xmlns="http://www.w3.org/2000/svg">
<path fill-rule="evenodd" clip-rule="evenodd" d="M1.073 19.4425C1.48884 14.4169 3.77856 9.73117 7.48791 6.31496C11.1973 2.89875 16.0552 1.00164 21.098 1H22.178C27.2208 1.00164 32.0787 2.89875 35.7881 6.31496C39.4974 9.73117 41.7872 14.4169 42.203 19.4425C42.6645 25.0535 40.9322 30.6249 37.3705 34.985L25.388 49.64C24.9338 50.1959 24.3618 50.6438 23.7132 50.9514C23.0647 51.259 22.3558 51.4186 21.638 51.4186C20.9202 51.4186 20.2114 51.259 19.5628 50.9514C18.9142 50.6438 18.3422 50.1959 17.888 49.64L5.908 34.985C2.34541 30.6252 0.612244 25.0539 1.073 19.4425ZM30.463 18.575C30.7942 18.2196 30.9745 17.7494 30.9659 17.2637C30.9574 16.7779 30.7606 16.3145 30.4171 15.9709C30.0735 15.6274 29.6101 15.4306 29.1243 15.4221C28.6386 15.4135 28.1684 15.5938 27.813 15.925L20.388 23.35L16.713 19.675C16.5413 19.4908 16.3343 19.343 16.1043 19.2405C15.8744 19.1381 15.6261 19.083 15.3743 19.0785C15.1226 19.0741 14.8725 19.1204 14.639 19.2147C14.4055 19.309 14.1935 19.4494 14.0154 19.6274C13.8374 19.8055 13.697 20.0175 13.6027 20.251C13.5084 20.4845 13.4621 20.7345 13.4665 20.9863C13.471 21.2381 13.5261 21.4863 13.6286 21.7163C13.731 21.9463 13.8788 22.1533 14.063 22.325L19.063 27.325C19.4146 27.6761 19.8911 27.8734 20.388 27.8734C20.8849 27.8734 21.3614 27.6761 21.713 27.325L30.463 18.575Z" fill="#666666"/>
<path d="M30.463 18.575C30.7942 18.2196 30.9745 17.7494 30.9659 17.2637C30.9574 16.7779 30.7606 16.3145 30.4171 15.9709C30.0735 15.6274 29.6101 15.4306 29.1243 15.4221C28.6386 15.4135 28.1684 15.5938 27.813 15.925L20.388 23.35L16.713 19.675C16.5413 19.4908 16.3343 19.343 16.1043 19.2405C15.8744 19.1381 15.6261 19.083 15.3743 19.0785C15.1226 19.0741 14.8725 19.1204 14.639 19.2147C14.4055 19.309 14.1935 19.4494 14.0154 19.6274C13.8374 19.8055 13.697 20.0175 13.6027 20.251C13.5084 20.4845 13.4621 20.7345 13.4665 20.9863C13.471 21.2381 13.5261 21.4863 13.6286 21.7163C13.731 21.9463 13.8788 22.1533 14.063 22.325L19.063 27.325C19.4146 27.6761 19.8911 27.8734 20.388 27.8734C20.8849 27.8734 21.3614 27.6761 21.713 27.325L30.463 18.575Z" fill="white"/>
<path fill-rule="evenodd" clip-rule="evenodd" d="M1.073 19.4425C1.48884 14.4169 3.77856 9.73117 7.48791 6.31496C11.1973 2.89875 16.0552 1.00164 21.098 1H22.178C27.2208 1.00164 32.0787 2.89875 35.7881 6.31496C39.4974 9.73117 41.7872 14.4169 42.203 19.4425C42.6645 25.0535 40.9322 30.6249 37.3705 34.985L25.388 49.64C24.9338 50.1959 24.3618 50.6438 23.7132 50.9514C23.0647 51.259 22.3558 51.4186 21.638 51.4186C20.9202 51.4186 20.2114 51.259 19.5628 50.9514C18.9142 50.6438 18.3422 50.1959 17.888 49.64L5.908 34.985C2.34541 30.6252 0.612244 25.0539 1.073 19.4425ZM30.463 18.575C30.7942 18.2196 30.9745 17.7494 30.9659 17.2637C30.9574 16.7779 30.7606 16.3145 30.4171 15.9709C30.0735 15.6274 29.6101 15.4306 29.1243 15.4221C28.6386 15.4135 28.1684 15.5938 27.813 15.925L20.388 23.35L16.713 19.675C16.5413 19.4908 16.3343 19.343 16.1043 19.2405C15.8744 19.1381 15.6261 19.083 15.3743 19.0785C15.1226 19.0741 14.8725 19.1204 14.639 19.2147C14.4055 19.309 14.1935 19.4494 14.0154 19.6274C13.8374 19.8055 13.697 20.0175 13.6027 20.251C13.5084 20.4845 13.4621 20.7345 13.4665 20.9863C13.471 21.2381 13.5261 21.4863 13.6286 21.7163C13.731 21.9463 13.8788 22.1533 14.063 22.325L19.063 27.325C19.4146 27.6761 19.8911 27.8734 20.388 27.8734C20.8849 27.8734 21.3614 27.6761 21.713 27.325L30.463 18.575Z" stroke="white" stroke-width="2"/>
<path d="M30.463 18.575C30.7942 18.2196 30.9745 17.7494 30.9659 17.2637C30.9574 16.7779 30.7606 16.3145 30.4171 15.9709C30.0735 15.6274 29.6101 15.4306 29.1243 15.4221C28.6386 15.4135 28.1684 15.5938 27.813 15.925L20.388 23.35L16.713 19.675C16.5413 19.4908 16.3343 19.343 16.1043 19.2405C15.8744 19.1381 15.6261 19.083 15.3743 19.0785C15.1226 19.0741 14.8725 19.1204 14.639 19.2147C14.4055 19.309 14.1935 19.4494 14.0154 19.6274C13.8374 19.8055 13.697 20.0175 13.6027 20.251C13.5084 20.4845 13.4621 20.7345 13.4665 20.9863C13.471 21.2381 13.5261 21.4863 13.6286 21.7163C13.731 21.9463 13.8788 22.1533 14.063 22.325L19.063 27.325C19.4146 27.6761 19.8911 27.8734 20.388 27.8734C20.8849 27.8734 21.3614 27.6761 21.713 27.325L30.463 18.575Z" stroke="white" stroke-width="2"/>
</svg>
