<svg width="58" height="69" viewBox="0 0 58 69" fill="none" xmlns="http://www.w3.org/2000/svg">
<path fill-rule="evenodd" clip-rule="evenodd" d="M1.09734 25.7667C1.65179 19.1694 4.70475 13.0183 9.65055 8.53376C14.5963 4.04919 21.0736 1.5588 27.7973 1.55664H29.2373C35.9611 1.5588 42.4383 4.04919 47.3841 8.53376C52.3299 13.0183 55.3829 19.1694 55.9373 25.7667C56.5526 33.1325 54.2429 40.4461 49.494 46.1698L33.5173 65.4079C32.9118 66.1376 32.149 66.7257 31.2843 67.1295C30.4195 67.5333 29.4744 67.7428 28.5173 67.7428C27.5603 67.7428 26.6151 67.5333 25.7504 67.1295C24.8856 66.7257 24.1229 66.1376 23.5173 65.4079L7.544 46.1698C2.79388 40.4466 0.482992 33.1329 1.09734 25.7667ZM40.284 24.6279C40.7256 24.1613 40.966 23.5442 40.9546 22.9065C40.9432 22.2688 40.6808 21.6604 40.2227 21.2095C39.7647 20.7585 39.1467 20.5002 38.4991 20.4889C37.8514 20.4777 37.2246 20.7144 36.7507 21.1492L26.8507 30.8962L21.9507 26.0719C21.7218 25.8301 21.4458 25.6361 21.1391 25.5016C20.8325 25.3671 20.5014 25.2947 20.1657 25.2889C19.8301 25.2831 19.4966 25.3439 19.1853 25.4676C18.8741 25.5914 18.5913 25.7757 18.3539 26.0094C18.1165 26.2432 17.9293 26.5216 17.8036 26.828C17.6779 27.1345 17.6161 27.4628 17.622 27.7933C17.628 28.1238 17.7014 28.4497 17.8381 28.7516C17.9747 29.0536 18.1717 29.3253 18.4173 29.5506L25.084 36.1143C25.5528 36.5752 26.1882 36.8341 26.8507 36.8341C27.5132 36.8341 28.1486 36.5752 28.6173 36.1143L40.284 24.6279Z" fill="#FFBD55"/>
<path d="M40.284 24.6279C40.7256 24.1613 40.966 23.5442 40.9546 22.9065C40.9432 22.2688 40.6808 21.6604 40.2227 21.2095C39.7647 20.7585 39.1467 20.5002 38.4991 20.4889C37.8514 20.4777 37.2246 20.7144 36.7507 21.1492L26.8507 30.8962L21.9507 26.0719C21.7218 25.8301 21.4458 25.6361 21.1391 25.5016C20.8325 25.3671 20.5014 25.2947 20.1657 25.2889C19.8301 25.2831 19.4966 25.3439 19.1853 25.4676C18.8741 25.5914 18.5913 25.7757 18.3539 26.0094C18.1165 26.2432 17.9293 26.5216 17.8036 26.828C17.6779 27.1345 17.6161 27.4628 17.622 27.7933C17.628 28.1238 17.7014 28.4497 17.8381 28.7516C17.9747 29.0536 18.1717 29.3253 18.4173 29.5506L25.084 36.1143C25.5528 36.5752 26.1882 36.8341 26.8507 36.8341C27.5132 36.8341 28.1486 36.5752 28.6173 36.1143L40.284 24.6279Z" fill="white"/>
<path fill-rule="evenodd" clip-rule="evenodd" d="M1.09734 25.7667C1.65179 19.1694 4.70475 13.0183 9.65055 8.53376C14.5963 4.04919 21.0736 1.5588 27.7973 1.55664H29.2373C35.9611 1.5588 42.4383 4.04919 47.3841 8.53376C52.3299 13.0183 55.3829 19.1694 55.9373 25.7667C56.5526 33.1325 54.2429 40.4461 49.494 46.1698L33.5173 65.4079C32.9118 66.1376 32.149 66.7257 31.2843 67.1295C30.4195 67.5333 29.4744 67.7428 28.5173 67.7428C27.5603 67.7428 26.6151 67.5333 25.7504 67.1295C24.8856 66.7257 24.1229 66.1376 23.5173 65.4079L7.544 46.1698C2.79388 40.4466 0.482992 33.1329 1.09734 25.7667ZM40.284 24.6279C40.7256 24.1613 40.966 23.5442 40.9546 22.9065C40.9432 22.2688 40.6808 21.6604 40.2227 21.2095C39.7647 20.7585 39.1467 20.5002 38.4991 20.4889C37.8514 20.4777 37.2246 20.7144 36.7507 21.1492L26.8507 30.8962L21.9507 26.0719C21.7218 25.8301 21.4458 25.6361 21.1391 25.5016C20.8325 25.3671 20.5014 25.2947 20.1657 25.2889C19.8301 25.2831 19.4966 25.3439 19.1853 25.4676C18.8741 25.5914 18.5913 25.7757 18.3539 26.0094C18.1165 26.2432 17.9293 26.5216 17.8036 26.828C17.6779 27.1345 17.6161 27.4628 17.622 27.7933C17.628 28.1238 17.7014 28.4497 17.8381 28.7516C17.9747 29.0536 18.1717 29.3253 18.4173 29.5506L25.084 36.1143C25.5528 36.5752 26.1882 36.8341 26.8507 36.8341C27.5132 36.8341 28.1486 36.5752 28.6173 36.1143L40.284 24.6279Z" stroke="white" stroke-width="2"/>
<path d="M40.284 24.6279C40.7256 24.1613 40.966 23.5442 40.9546 22.9065C40.9432 22.2688 40.6808 21.6604 40.2227 21.2095C39.7647 20.7585 39.1467 20.5002 38.4991 20.4889C37.8514 20.4777 37.2246 20.7144 36.7507 21.1492L26.8507 30.8962L21.9507 26.0719C21.7218 25.8301 21.4458 25.6361 21.1391 25.5016C20.8325 25.3671 20.5014 25.2947 20.1657 25.2889C19.8301 25.2831 19.4966 25.3439 19.1853 25.4676C18.8741 25.5914 18.5913 25.7757 18.3539 26.0094C18.1165 26.2432 17.9293 26.5216 17.8036 26.828C17.6779 27.1345 17.6161 27.4628 17.622 27.7933C17.628 28.1238 17.7014 28.4497 17.8381 28.7516C17.9747 29.0536 18.1717 29.3253 18.4173 29.5506L25.084 36.1143C25.5528 36.5752 26.1882 36.8341 26.8507 36.8341C27.5132 36.8341 28.1486 36.5752 28.6173 36.1143L40.284 24.6279Z" stroke="white" stroke-width="2"/>
</svg>
