<svg width="14" height="14" viewBox="0 0 14 14" fill="none" xmlns="http://www.w3.org/2000/svg">
<path d="M5.01447 10.0684C3.62503 10.0684 2.44188 9.57803 1.46504 8.59737C0.488348 7.61656 0 6.42883 0 5.03418C0 3.63953 0.488348 2.4518 1.46504 1.47099C2.44188 0.49033 3.62481 0 5.01382 0C6.40284 0 7.58577 0.49033 8.56261 1.47099C9.5393 2.4518 10.0276 3.63974 10.0276 5.03483C10.0276 5.59718 9.94331 6.15025 9.77463 6.69404C9.60594 7.23783 9.36395 7.72334 9.04866 8.15057L13.7847 12.9059C13.9225 13.0443 13.9941 13.1865 13.9997 13.3326C14.0052 13.4788 13.9335 13.6266 13.7847 13.776C13.6358 13.9253 13.4878 14 13.3406 14C13.1936 14 13.0456 13.9253 12.8967 13.776L8.1821 9.06381C7.75216 9.38816 7.24847 9.63667 6.67105 9.80935C6.09364 9.98202 5.54144 10.0684 5.01447 10.0684ZM5.01382 8.81645C6.0831 8.81645 6.97825 8.45448 7.69927 7.73053C8.42029 7.00673 8.7808 6.10794 8.7808 5.03418C8.7808 3.96042 8.42029 3.06163 7.69927 2.33783C6.97825 1.61388 6.0831 1.25191 5.01382 1.25191C3.9444 1.25191 3.04925 1.61388 2.32838 2.33783C1.60736 3.06163 1.24685 3.96042 1.24685 5.03418C1.24685 6.10794 1.60736 7.00673 2.32838 7.73053C3.04925 8.45448 3.9444 8.81645 5.01382 8.81645Z" fill="#222222"/>
</svg>
